<svg xmlns="http://www.w3.org/2000/svg" style="display:none">
    <symbol id="icon-sale" viewBox="0 0 24 24">
        <g clip-path="url(#clip0_158_5622)">
            <path
                d="M20.9487 14.0517C20.6738 10.4724 19.0073 8.22938 17.5371 6.25004C16.1758 4.4176 15 2.8352 15 0.500917C15 0.313417 14.895 0.142042 14.7285 0.0561205C14.5615 -0.0303169 14.3608 -0.0161607 14.209 0.094183C12.001 1.67415 10.1587 4.33707 9.51515 6.87788C9.06839 8.6468 9.00928 10.6354 9.00098 11.9488C6.96192 11.5133 6.50001 8.46324 6.49514 8.43001C6.47217 8.2718 6.37551 8.13413 6.23489 8.05894C6.09281 7.98474 5.9258 7.97935 5.78175 8.05065C5.67483 8.1024 3.15722 9.38162 3.01073 14.4892C3.00047 14.6591 3 14.8295 3 14.9999C3 19.962 7.03758 23.9993 12 23.9993C12.0068 23.9998 12.0142 24.0007 12.02 23.9993C12.022 23.9993 12.0239 23.9993 12.0263 23.9993C16.9766 23.9851 21 19.9532 21 14.9999C21 14.7504 20.9487 14.0517 20.9487 14.0517ZM12 22.9994C10.3457 22.9994 9 21.5659 9 19.8038C9 19.7438 8.99953 19.6832 9.00389 19.609C9.0239 18.8659 9.16504 18.3586 9.31983 18.0212C9.60989 18.6442 10.1284 19.2169 10.9707 19.2169C11.2471 19.2169 11.4707 18.9933 11.4707 18.717C11.4707 18.0051 11.4854 17.1839 11.6626 16.4427C11.8204 15.7855 12.1973 15.0863 12.6749 14.5258C12.8872 15.2533 13.3013 15.8421 13.7056 16.4168C14.2843 17.239 14.8824 18.0891 14.9874 19.5387C14.9937 19.6246 15.0001 19.711 15.0001 19.8038C15 21.5658 13.6543 22.9994 12 22.9994Z" />
        </g>
        <defs>
            <clipPath id="clip0_158_5622">
                <rect width="24" height="24" />
            </clipPath>
        </defs>
    </symbol>
    <symbol id="icon-pizza" viewBox="0 0 24 24">
        <g clip-path="url(#clip0_177_12504)">
            <path
                d="M19.6163 17.2538C19.6787 17.9016 19.4511 18.5372 18.9911 18.9976C18.5311 19.458 17.8972 19.6856 17.2485 19.6237C16.7103 19.5716 16.1962 19.8681 15.9718 20.3615C15.702 20.9542 15.1869 21.3905 14.5588 21.559C13.9301 21.7273 13.2665 21.6074 12.7374 21.2292C12.6474 21.165 12.55 21.1173 12.45 21.0792V24C16.535 23.8483 20.103 21.6439 22.1546 18.3883L19.6302 16.9295C19.6131 17.0353 19.6057 17.1436 19.6163 17.2538Z" />
            <path
                d="M10.0049 21.6335C9.8168 21.6335 9.62754 21.609 9.44122 21.559C8.81309 21.3907 8.29805 20.9543 8.02823 20.3618C7.80352 19.868 7.28877 19.5721 6.75118 19.6237C6.10196 19.685 5.46856 19.4579 5.00889 18.9976C4.54893 18.5372 4.32129 17.9016 4.38369 17.2537C4.39428 17.1435 4.38688 17.0353 4.36978 16.9295L1.84541 18.3884C3.89704 21.644 7.46499 23.8483 11.55 24V21.0792C11.45 21.1173 11.3526 21.165 11.2626 21.2292C10.8902 21.4952 10.4511 21.6335 10.0049 21.6335Z" />
            <path
                d="M9.67412 3.31107C9.30644 3.40975 9.00527 3.66502 8.84736 4.01179C8.46357 4.85531 7.58144 5.36263 6.66503 5.27304C6.28564 5.23654 5.91445 5.36982 5.6455 5.63931C5.37626 5.90866 5.24296 6.28064 5.27958 6.65981C5.30877 6.96316 5.26801 7.25963 5.1777 7.53735L11.55 11.2199V3.85457C11.2646 3.794 10.9877 3.68111 10.7399 3.50418C10.4303 3.28277 10.0415 3.21283 9.67412 3.31107ZM9.80024 8.18624C9.12099 8.57877 8.25241 8.34582 7.86027 7.66594C7.46813 6.98605 7.70082 6.11668 8.38007 5.72415C9.05932 5.33162 9.92786 5.56457 10.32 6.24444C10.7122 6.92434 10.4794 7.79371 9.80024 8.18624Z" />
            <path
                d="M3.64629 15.9753C3.05449 15.7056 2.61855 15.1902 2.4501 14.5615C2.28164 13.9326 2.40176 13.268 2.77969 12.7381C3.09434 12.2966 3.09434 11.7034 2.77969 11.262C2.40176 10.732 2.28164 10.0673 2.4501 9.43848C2.61855 8.80976 3.05449 8.29438 3.64629 8.02459C3.74692 7.97871 3.83687 7.91823 3.91978 7.85053L1.39351 6.39059C0.505408 8.06617 0 9.97476 0 12C0 14.0252 0.505408 15.9338 1.39351 17.6094L3.91985 16.1494C3.8369 16.0817 3.74692 16.0212 3.64629 15.9753Z" />
            <path
                d="M14.5588 2.44101C15.1869 2.60933 15.702 3.04569 15.9718 3.63819C16.1962 4.13202 16.7103 4.42849 17.2488 4.3763C17.896 4.31398 18.5314 4.54213 18.9911 5.00238C19.4511 5.46278 19.6787 6.09839 19.6163 6.74632C19.6057 6.85647 19.6131 6.96472 19.6302 7.07047L22.1546 5.61164C20.103 2.35604 16.535 0.151737 12.45 0V2.92078C12.55 2.88273 12.6474 2.83502 12.7374 2.77077C13.2665 2.39262 13.9301 2.27225 14.5588 2.44101Z" />
            <path
                d="M3.31935 14.3282C3.41778 14.6961 3.67296 14.9977 4.01954 15.1555C4.29651 15.2819 4.5326 15.4654 4.72776 15.6826L11.1001 12L4.72772 8.31741C4.5326 8.53453 4.29647 8.71804 4.01954 8.84436C3.67296 9.00227 3.41778 9.30388 3.31935 9.67176C3.22091 10.0396 3.29122 10.4286 3.51212 10.7387C4.0503 11.4931 4.0503 12.5069 3.51212 13.2614C3.29122 13.5714 3.22091 13.9604 3.31935 14.3282ZM6.18033 10.5785C6.96465 10.5785 7.60046 11.2149 7.60046 12C7.60046 12.7851 6.96465 13.4215 6.18033 13.4215C5.39598 13.4215 4.76017 12.7851 4.76017 12C4.76017 11.2149 5.39598 10.5785 6.18033 10.5785Z" />
            <path
                d="M1.84541 5.61164L4.36978 7.07045C4.38692 6.96466 4.39428 6.85638 4.38369 6.74618C4.32129 6.09839 4.54893 5.46278 5.00889 5.00238C5.46885 4.54198 6.10284 4.31427 6.75147 4.3763C7.28789 4.42923 7.80381 4.13173 8.02823 3.63849C8.29805 3.04583 8.81309 2.60948 9.44122 2.44101C10.0696 2.27254 10.7332 2.39262 11.2626 2.77077C11.3526 2.83502 11.45 2.88273 11.55 2.92078V0C7.46499 0.151737 3.89704 2.35604 1.84541 5.61164Z" />
            <path
                d="M22.6065 6.39059L20.0802 7.85055C20.1631 7.91829 20.2531 7.97882 20.3537 8.02473C20.9455 8.29438 21.3815 8.80976 21.5499 9.43848C21.7184 10.0673 21.5983 10.732 21.2203 11.2619C20.9057 11.7034 20.9057 12.2966 21.2203 12.738C21.5983 13.268 21.7184 13.9326 21.5499 14.5615C21.3815 15.1902 20.9455 15.7056 20.3537 15.9754C20.2531 16.0213 20.1632 16.0818 20.0802 16.1495L22.6065 17.6094C23.4946 15.9338 24 14.0252 24 12C24 9.97476 23.4946 8.06617 22.6065 6.39059Z" />
            <path
                d="M5.27958 17.34C5.24296 17.7193 5.37626 18.0913 5.6455 18.3607C5.91445 18.63 6.28886 18.7623 6.66474 18.7269C7.58935 18.6372 8.46386 19.1451 8.84736 19.9882C9.00527 20.3348 9.30644 20.5902 9.67412 20.6889C10.0412 20.7875 10.4303 20.7172 10.7399 20.4958C10.9877 20.3189 11.2646 20.206 11.55 20.1454V12.7801L5.1777 16.4626C5.26801 16.7403 5.30877 17.0367 5.27958 17.34ZM7.86027 16.334C8.25241 15.6542 9.12099 15.4212 9.80024 15.8138C10.4794 16.2063 10.7122 17.0757 10.32 17.7555C9.92786 18.4354 9.05932 18.6684 8.38007 18.2758C7.70082 17.8833 7.46813 17.0139 7.86027 16.334Z" />
            <path
                d="M14.3259 20.6889C14.6936 20.5902 14.9947 20.335 15.1526 19.9882C15.5364 19.1448 16.4186 18.6388 17.335 18.7269C17.7132 18.762 18.0855 18.6299 18.3545 18.3607C18.6237 18.0913 18.757 17.7193 18.7204 17.3402C18.6912 17.0368 18.732 16.7404 18.8223 16.4626L12.45 12.7801V20.1453C12.7354 20.2059 13.0123 20.3189 13.2601 20.4958C13.57 20.7174 13.9591 20.7876 14.3259 20.6889ZM14.1998 15.8138C14.879 15.4212 15.7476 15.6542 16.1397 16.334C16.5319 17.0139 16.2992 17.8833 15.6199 18.2758C14.9407 18.6684 14.0721 18.4354 13.68 17.7555C13.2878 17.0757 13.5205 16.2063 14.1998 15.8138Z" />
            <path
                d="M20.6807 9.67177C20.5822 9.30389 20.327 9.00229 19.9805 8.84452C19.7035 8.71815 19.4674 8.53459 19.2723 8.31744L12.8999 12L19.2723 15.6826C19.4674 15.4655 19.7035 15.282 19.9805 15.1556C20.327 14.9977 20.5822 14.6961 20.6807 14.3282C20.7791 13.9604 20.7088 13.5714 20.4879 13.2613C19.9497 12.5069 19.9497 11.4931 20.4879 10.7386C20.7088 10.4286 20.7791 10.0396 20.6807 9.67177ZM17.8197 13.4215C17.0354 13.4215 16.3995 12.7851 16.3995 12C16.3995 11.2149 17.0354 10.5785 17.8197 10.5785C18.604 10.5785 19.2398 11.2149 19.2398 12C19.2398 12.7851 18.604 13.4215 17.8197 13.4215Z" />
            <path
                d="M18.7204 6.65996C18.757 6.28065 18.6237 5.90866 18.3545 5.63931C18.0855 5.36997 17.7108 5.23683 17.3353 5.27305C16.4109 5.36176 15.5361 4.85502 15.1526 4.01179C14.9947 3.66517 14.6936 3.40975 14.3259 3.31108C13.9588 3.21269 13.57 3.28278 13.2601 3.50418C13.0123 3.68112 12.7354 3.794 12.45 3.85457V11.2199L18.8223 7.53738C18.732 7.25969 18.6912 6.96325 18.7204 6.65996ZM16.1397 7.66595C15.7476 8.34582 14.879 8.57877 14.1998 8.18624C13.5205 7.79371 13.2878 6.92434 13.68 6.24445C14.0721 5.56457 14.9407 5.33162 15.6199 5.72415C16.2992 6.11668 16.5319 6.98605 16.1397 7.66595Z" />
        </g>
        <defs>
            <clipPath id="clip0_177_12504">
                <rect width="24" height="24" fill="white" />
            </clipPath>
        </defs>
    </symbol>
    <symbol id="icon-sushi" viewBox="0 0 24 24">
        <path
            d="M14.5944 14.5364C11.4027 14.5364 8.39458 15.0059 5.89554 15.8941C5.27865 16.1133 4.63648 16.2246 3.98702 16.2245C3.18611 16.2245 2.41004 16.0537 1.70169 15.7391C2.28354 17.9025 4.26536 19.5 6.61438 19.5H18.2332C20.6063 19.5 22.6048 17.8696 23.1635 15.6723C22.9372 15.6716 22.7121 15.6402 22.4944 15.5786C20.0848 14.8968 17.353 14.5364 14.5944 14.5364Z" />
        <path
            d="M7.53093 13.6893C8.52777 13.4467 9.56998 13.2583 10.6403 13.1253C8.55365 10.8448 8.35926 7.0059 10.2628 4.5C8.73011 4.54715 7.23382 4.7977 5.84064 5.23078C5.12682 5.91458 4.62026 6.79534 4.39474 7.76356C3.78508 10.1687 5.20751 12.8388 7.53093 13.6893Z" />
        <path
            d="M5.3279 14.3415C3.24127 12.7807 2.15468 10.0826 2.782 7.38947C2.86115 7.04969 2.96784 6.71856 3.09738 6.39767C2.54445 6.70628 2.02244 7.04958 1.53812 7.42615C-1.4682 9.74991 0.243616 14.5813 3.98704 14.5722C4.43255 14.5722 4.88525 14.4973 5.3279 14.3415Z" />
        <path
            d="M19.4592 6.91954C18.7295 7.27838 18.141 7.86727 17.7836 8.60499C17.1825 9.84525 17.3329 11.2871 18.1324 12.3653C18.2561 12.5319 18.7103 13.033 18.7525 13.1468C20.1952 13.3305 21.6074 13.6102 22.9462 13.9891C23.2244 14.0678 23.5239 13.9959 23.7358 13.7993C23.9477 13.6027 24.0414 13.31 23.9829 13.0272C23.4771 10.5821 21.8179 8.44422 19.4592 6.91954Z" />
        <path
            d="M12.8922 12.9286C14.0947 12.8664 15.3147 12.8709 16.5285 12.9414C15.6104 11.4311 15.4933 9.53572 16.2929 7.88563C16.6527 7.14317 17.1739 6.50487 17.8124 6.00911C16.2085 5.25597 14.3837 4.75343 12.4393 4.56958C9.80771 6.73581 10.0551 11.0769 12.8922 12.9286Z" />
    </symbol>
    <symbol id="icon-juice" viewBox="0 0 24 24">
        <path
            d="M12.8289 4.88496V2.76106L17.2881 1.70124C17.7205 1.59848 17.9816 1.15788 17.8642 0.729266C17.7527 0.322055 17.3393 0.0757875 16.9281 0.171614L11.9441 1.33312C11.4914 1.43862 11.1711 1.84218 11.1711 2.30702V4.88496H6C5.44772 4.88496 5 5.33267 5 5.88496V8.33628H19V5.88496C19 5.33267 18.5523 4.88496 18 4.88496H12.8289Z" />
        <path
            d="M5.06448 9.66371L6.97106 22.6195C7.08159 23.4159 7.80001 24 8.60133 24H15.3158C16.1447 24 16.8355 23.4159 16.9461 22.6195L18.8526 9.66371H5.06448Z" />
    </symbol>
    <symbol id="icon-snakes" viewBox="0 0 24 24">
        <path
            d="M6.79871 0C6.57711 0 6.41171 0.178783 6.39871 0.400006V6.4711C6.80088 6.61624 7.11279 6.97066 7.18308 7.40939C7.18588 7.42466 7.3455 8.32001 7.99871 9.26252V0.400006C7.99871 0.178405 7.82031 0 7.59871 0H6.79871ZM16.3987 0C16.1771 0 16.0117 0.178783 15.9987 0.400006V9.2586C16.6559 8.30847 16.8167 7.40154 16.8167 7.40154C16.8894 6.96691 17.1994 6.61559 17.5987 6.4711V0.400006C17.5987 0.178405 17.4203 0 17.1987 0H16.3987ZM9.19871 1.60002C8.97711 1.60002 8.79871 1.7784 8.79871 1.99998V10.1633C9.20828 10.5191 9.7188 10.8211 10.3987 11.0047V1.99998C10.3987 1.7784 10.2203 1.60002 9.99871 1.60002H9.19871ZM13.9987 1.60002C13.7771 1.60002 13.5987 1.7784 13.5987 1.99998V11.0047C14.2788 10.8208 14.7893 10.518 15.1987 10.1617V1.99998C15.1987 1.7784 15.0203 1.60002 14.7987 1.60002H13.9987ZM4.39871 3.2C4.17711 3.2 3.99871 3.37841 3.99871 3.60001V6.39922H5.59871V3.60001C5.59871 3.37841 5.42031 3.2 5.19871 3.2H4.39871ZM11.5987 3.2C11.3771 3.2 11.1987 3.37841 11.1987 3.60001V11.1562C11.4469 11.1844 11.7126 11.1999 11.9979 11.1999C12.2841 11.1999 12.5499 11.1845 12.7987 11.1562V3.60001C12.7987 3.37841 12.6203 3.2 12.3987 3.2H11.5987ZM18.7987 3.2C18.5771 3.2 18.3987 3.37841 18.3987 3.60001V6.39922H19.9987V3.60001C19.9987 3.37841 19.8203 3.2 19.5987 3.2H18.7987ZM2.39871 7.19923C2.15787 7.20008 1.97237 7.41194 2.00339 7.65077L4.00262 22.8484C4.07337 23.4438 4.53817 24 5.19793 24H18.7987C19.4568 24 19.9213 23.4451 19.994 22.8516L21.9964 7.65077C22.0275 7.4107 21.84 7.19819 21.5979 7.19923H17.9987C17.803 7.20023 17.6367 7.34269 17.6057 7.53594C17.6057 7.53594 17.4166 8.64644 16.6221 9.76795C15.8277 10.8895 14.4756 12 11.9987 12C9.52179 12 8.1689 10.8895 7.37449 9.76795C6.58009 8.64644 6.39402 7.53594 6.39402 7.53594C6.3629 7.34179 6.19532 7.19908 5.99871 7.19923H2.39871ZM11.9987 14.8008C13.7613 14.8008 15.1987 16.2359 15.1987 17.9984C15.1987 19.761 13.7613 21.1992 11.9987 21.1992C10.2361 21.1992 8.79714 19.761 8.79714 17.9984C8.79714 16.2359 10.2361 14.8008 11.9987 14.8008Z" />
    </symbol>
    <symbol id="icon-combo" viewBox="0 0 24 24">
        <g clip-path="url(#clip0_177_12564)">
            <mask id="mask0_177_12564" style="mask-type:alpha" maskUnits="userSpaceOnUse" x="0" y="0" width="13"
                height="24">
                <rect width="12.3" height="24" />
            </mask>
            <g mask="url(#mask0_177_12564)">
                <path
                    d="M10.0049 21.6335C9.81679 21.6335 9.62753 21.609 9.4412 21.559C8.81307 21.3907 8.29804 20.9543 8.02821 20.3618C7.8035 19.868 7.28876 19.5721 6.75116 19.6237C6.10194 19.685 5.46854 19.4579 5.00887 18.9976C4.54891 18.5372 4.32128 17.9016 4.38368 17.2537C4.39426 17.1435 4.38687 17.0353 4.36976 16.9295L1.8454 18.3884C3.89702 21.644 7.46498 23.8483 11.55 24V21.0792C11.4499 21.1173 11.3526 21.165 11.2626 21.2292C10.8902 21.4952 10.4511 21.6335 10.0049 21.6335Z" />
                <path
                    d="M9.67415 3.31107C9.30647 3.40975 9.0053 3.66502 8.84739 4.01179C8.4636 4.85531 7.58147 5.36263 6.66506 5.27304C6.28567 5.23654 5.91448 5.36982 5.64553 5.63931C5.37629 5.90866 5.24299 6.28064 5.27961 6.65981C5.3088 6.96316 5.26804 7.25963 5.17773 7.53735L11.55 11.2199V3.85457C11.2646 3.794 10.9877 3.68111 10.74 3.50418C10.4303 3.28277 10.0415 3.21283 9.67415 3.31107ZM9.80027 8.18624C9.12102 8.57877 8.25244 8.34582 7.8603 7.66594C7.46816 6.98605 7.70085 6.11668 8.3801 5.72415C9.05935 5.33162 9.92789 5.56457 10.3201 6.24444C10.7122 6.92434 10.4795 7.79371 9.80027 8.18624Z" />
                <path
                    d="M3.64629 15.9753C3.05449 15.7056 2.61855 15.1902 2.4501 14.5615C2.28164 13.9326 2.40176 13.268 2.77969 12.7381C3.09434 12.2966 3.09434 11.7034 2.77969 11.262C2.40176 10.732 2.28164 10.0673 2.4501 9.43848C2.61855 8.80976 3.05449 8.29438 3.64629 8.02459C3.74692 7.97871 3.83687 7.91823 3.91978 7.85053L1.39351 6.39059C0.505408 8.06617 0 9.97476 0 12C0 14.0252 0.505408 15.9338 1.39351 17.6094L3.91985 16.1494C3.8369 16.0817 3.74692 16.0212 3.64629 15.9753Z" />
                <path
                    d="M3.31935 14.3282C3.41778 14.6961 3.67296 14.9977 4.01954 15.1555C4.29651 15.2819 4.5326 15.4654 4.72776 15.6826L11.1001 12L4.72772 8.31741C4.5326 8.53453 4.29647 8.71804 4.01954 8.84436C3.67296 9.00227 3.41778 9.30388 3.31935 9.67176C3.22091 10.0396 3.29122 10.4286 3.51212 10.7387C4.0503 11.4931 4.0503 12.5069 3.51212 13.2614C3.29122 13.5714 3.22091 13.9604 3.31935 14.3282ZM6.18033 10.5785C6.96465 10.5785 7.60046 11.2149 7.60046 12C7.60046 12.7851 6.96465 13.4215 6.18033 13.4215C5.39598 13.4215 4.76017 12.7851 4.76017 12C4.76017 11.2149 5.39598 10.5785 6.18033 10.5785Z" />
                <path
                    d="M1.8454 5.61164L4.36976 7.07045C4.3869 6.96466 4.39426 6.85638 4.38368 6.74618C4.32128 6.09839 4.54891 5.46278 5.00887 5.00238C5.46884 4.54198 6.10282 4.31427 6.75145 4.3763C7.28788 4.42923 7.8038 4.13173 8.02821 3.63849C8.29804 3.04583 8.81307 2.60948 9.4412 2.44101C10.0696 2.27254 10.7332 2.39262 11.2626 2.77077C11.3526 2.83502 11.4499 2.88273 11.55 2.92078V0C7.46498 0.151737 3.89702 2.35604 1.8454 5.61164Z" />
                <path
                    d="M5.27961 17.34C5.24299 17.7193 5.37629 18.0913 5.64553 18.3607C5.91448 18.63 6.28889 18.7623 6.66477 18.7269C7.58938 18.6372 8.46389 19.1451 8.84739 19.9882C9.0053 20.3348 9.30647 20.5902 9.67415 20.6889C10.0412 20.7875 10.4303 20.7172 10.74 20.4958C10.9877 20.3189 11.2646 20.206 11.55 20.1454V12.7801L5.17773 16.4626C5.26804 16.7403 5.3088 17.0367 5.27961 17.34ZM7.8603 16.334C8.25244 15.6542 9.12102 15.4212 9.80027 15.8138C10.4795 16.2063 10.7122 17.0757 10.3201 17.7555C9.92789 18.4354 9.05935 18.6684 8.3801 18.2758C7.70085 17.8833 7.46816 17.0139 7.8603 16.334Z" />
            </g>
            <path
                d="M22.438 19.696C21.9055 18.672 21.8475 17.469 22.2805 16.3955C22.751 15.227 23 13.8795 23 12.5C23 10.1415 22.342 8.6935 21.705 7.293C21.1355 6.04 20.601 4.8425 20.517 2.9965C20.785 2.987 21 2.77 21 2.5C21 2.224 20.7765 2 20.5 2V0.5C20.5 0.224 20.2765 0 20 0H16C15.7235 0 15.5 0.224 15.5 0.5V2C15.2235 2 15 2.224 15 2.5C15 2.77 15.215 2.987 15.483 2.9965C15.399 4.8425 14.8645 6.0405 14.295 7.293C13.6585 8.6935 13 10.1415 13 12.5C13 13.8795 13.249 15.227 13.7195 16.396C14.152 17.47 14.0945 18.673 13.562 19.6965C13.1945 20.4025 13 21.199 13 22C13 22.562 13.0975 23.1225 13.29 23.6665C13.3605 23.8665 13.5495 24 13.761 24H22.238C22.45 24 22.6385 23.8665 22.709 23.667C22.9025 23.1235 23 22.5625 23 22C23 21.199 22.806 20.4025 22.438 19.696C22.438 19.6965 22.438 19.6965 22.438 19.696ZM19.5105 3C19.525 3.356 19.56 3.6835 19.603 4H16.3975C16.4405 3.6835 16.4755 3.356 16.49 3H19.5105ZM21.349 9C21.472 9.318 21.583 9.649 21.6785 10H14.3215C14.417 9.649 14.528 9.318 14.651 9H21.349ZM21.6805 15C21.5905 15.345 21.4875 15.6815 21.3605 16H14.64C14.513 15.6815 14.41 15.345 14.32 15H21.6805Z" />
        </g>
        <defs>
            <clipPath id="clip0_177_12564">
                <rect width="24" height="24" />
            </clipPath>
        </defs>
    </symbol>
    <symbol id="icon-desert" viewBox="0 0 24 24">
        <path
            d="M13.2518 11.8441C12.9177 11.5095 12.468 11.3221 11.9996 11.3221C11.5312 11.3221 11.0815 11.5095 10.7474 11.8441C10.7474 11.8441 9.76425 12.846 9.48407 13.0714L10.3443 24H13.6622L14.5225 13.079C14.3602 12.9888 13.2518 11.8441 13.2518 11.8441Z" />
        <path
            d="M7.03124 11.7314C6.71264 11.4136 6.28911 11.2284 5.8436 11.2122C5.39808 11.196 4.96268 11.3499 4.62265 11.6437L2.90222 13.1165L4.55874 22.4621C4.63485 22.8917 4.85675 23.2804 5.18563 23.5602C5.5145 23.84 5.92942 23.993 6.35781 23.9925H9.36118L8.50589 13.1341C8.31172 13.0589 7.03124 11.7314 7.03124 11.7314Z" />
        <path
            d="M11.6026 2.0101C11.7295 2.06141 11.8643 2.0894 12.0008 2.09276C12.1716 2.09699 12.3405 2.05579 12.4909 1.97321C12.6414 1.89064 12.7681 1.76954 12.8586 1.62185C12.971 1.45158 13.0309 1.25096 13.0306 1.04574C13.03 0.886249 12.9938 0.728988 12.9247 0.585902C12.8555 0.442816 12.7553 0.317669 12.6316 0.219968C12.5079 0.122268 12.364 0.0545834 12.2108 0.0220571C12.0576 -0.0104693 11.8992 -0.00698213 11.7475 0.0322539C11.5958 0.0714898 11.4549 0.145443 11.3354 0.248494C11.216 0.351545 11.1212 0.480984 11.0582 0.626978C10.9952 0.772972 10.9656 0.931681 10.9718 1.09105C10.978 1.25041 11.0198 1.40625 11.0939 1.54671C11.2091 1.75377 11.3878 1.91657 11.6026 2.0101Z" />
        <path
            d="M17.9314 6.38354L17.6512 6.31591L17.5824 6.03036C17.1424 4.27698 15.5768 2.85173 13.5492 2.36579C13.3654 2.60327 13.1291 2.7931 12.8595 2.91977C12.59 3.04645 12.2949 3.10639 11.9984 3.0947C11.175 3.0947 10.4942 2.40587 10.4549 2.35828C8.4297 2.84421 6.86412 4.25443 6.42664 6.01783L6.36028 6.31591L6.07764 6.39105C4.89408 6.70564 3.87366 7.47019 3.22597 8.52764C2.57828 9.5851 2.3525 10.8552 2.59501 12.077L3.98855 10.8822C4.51511 10.4279 5.18895 10.19 5.87842 10.2151C6.56788 10.2401 7.22342 10.5262 7.71695 11.0175L8.94583 12.2298L10.0715 11.1202C10.3239 10.8625 10.6245 10.6592 10.9555 10.5224C11.2865 10.3856 11.6412 10.318 11.9984 10.3236C12.7239 10.3284 13.4192 10.6203 13.9375 11.1377L15.0386 12.2348L16.2945 11.0049C16.7886 10.5186 17.4423 10.2364 18.1289 10.2133C18.8155 10.1902 19.486 10.4276 20.0106 10.8797L21.4017 12.077C21.6486 10.8556 21.4263 9.58422 20.7806 8.52492C20.135 7.46562 19.1151 6.69916 17.9314 6.38354Z" />
        <path
            d="M16.9753 11.7163C16.9753 11.7163 15.653 13.0539 15.5006 13.114L14.6429 23.9925H17.6512C18.0796 23.993 18.4945 23.84 18.8234 23.5602C19.1522 23.2804 19.3741 22.8917 19.4502 22.462L20.2736 17.8181L21.092 13.1165L19.3716 11.6362C19.033 11.3454 18.6008 11.1928 18.1583 11.2076C17.7159 11.2224 17.2944 11.4036 16.9753 11.7163Z" />
    </symbol>
    <symbol id="icon-souce" viewBox="0 0 24 24">
        <path
            d="M23.9855 7.81606C23.9615 5.98344 22.4681 4.5 20.6358 4.5C18.9988 4.5 17.6332 5.68435 17.3434 7.24376C16.7679 7.49922 15.7683 7.90775 15.1727 8.0072C14.4545 8.12698 13.5866 8.16303 12.5931 8.11404C10.6954 8.02051 8.80078 7.40051 7.11401 6.32061C4.99145 4.96195 3.18365 4.644 1.25226 5.28969C0.503174 5.54016 0 6.24722 0 7.04948C0 7.30938 0.140808 7.54858 0.367126 7.67298C0.625854 7.81495 0.867736 7.93769 1.10175 8.05618C2.36938 8.69854 3.06775 9.05235 3.53045 11.0022C3.87616 12.4581 4.48096 13.6785 5.32837 14.6291C5.68799 15.0327 6.09228 15.3887 6.53741 15.6952H16.1603C17.614 14.5999 18.5039 12.9385 18.7485 10.8438C18.8954 9.5862 18.772 8.48985 18.6859 7.94952C18.6896 7.9205 18.6919 7.89111 18.6919 7.86098C18.6919 6.7905 19.5639 5.91966 20.6358 5.91966C21.7075 5.91966 22.5796 6.7905 22.5796 7.86098C22.5796 7.89481 22.582 7.92863 22.5868 7.96209C22.5877 7.96912 22.6653 8.67303 22.2317 9.17823C21.8763 9.5923 21.2485 9.80229 20.3657 9.80229C19.9773 9.80229 19.6626 10.1201 19.6626 10.5121C19.6626 10.904 19.9773 11.222 20.3657 11.222C21.6747 11.222 22.6602 10.8471 23.2945 10.1077C24.0725 9.20116 24.0154 8.09907 23.9855 7.81606Z" />
        <path
            d="M6.54126 17.1147C6.50208 17.2675 6.48138 17.4278 6.48138 17.5927V18.7902C6.48138 19.1821 6.79614 19.5 7.18433 19.5H15.5581C15.9463 19.5 16.2612 19.1821 16.2612 18.7902V17.5927C16.2612 17.4278 16.2404 17.2675 16.2012 17.1147H6.54126Z" />
    </symbol>
    <symbol id="icon-prev" viewBox="0 0 18 18">
        <path d="M12.6666 17.4545C12.4651 17.4545 12.2634 17.377 12.1096 17.2221L4.2309 9.28822C3.92303 8.97821 3.92303 8.47619 4.2309 8.16637L12.1096 0.232512C12.4175 -0.0775039 12.916 -0.0775039 13.2236 0.232512C13.5313 0.542527 13.5315 1.04454 13.2236 1.35436L5.90197 8.7273L13.2236 16.1002C13.5315 16.4103 13.5315 16.9123 13.2236 17.2221C13.0698 17.377 12.8681 17.4545 12.6666 17.4545Z" />
    </symbol>
    <symbol id="icon-next" viewBox="0 0 18 18">
        <path d="M4.78845 17.4545C4.98995 17.4545 5.19165 17.377 5.34548 17.2221L13.2242 9.28822C13.532 8.97821 13.532 8.47619 13.2242 8.16637L5.34548 0.232512C5.03762 -0.0775039 4.53909 -0.0775039 4.23143 0.232512C3.92377 0.542527 3.92357 1.04454 4.23143 1.35436L11.5531 8.7273L4.23143 16.1002C3.92357 16.4103 3.92357 16.9123 4.23143 17.2221C4.38526 17.377 4.58696 17.4545 4.78845 17.4545Z" />
    </symbol>
    <symbol id="icon-plane" viewBox="0 0 18 15">
        <path d="M16.415 5.88463L2.33228 0.128136C1.73899 -0.114402 1.06873 -0.00770778 0.583106 0.40644C0.0974804 0.820654 -0.105633 1.45887 0.053094 2.072L1.30658 6.91442H7.44384C7.72625 6.91442 7.95524 7.13996 7.95524 7.4182C7.95524 7.6964 7.72628 7.92198 7.44384 7.92198H1.30658L0.053094 12.7644C-0.105633 13.3775 0.0974463 14.0157 0.583106 14.4299C1.06972 14.8449 1.74005 14.9503 2.33231 14.7082L16.4151 8.95178C17.0563 8.68969 17.4545 8.10205 17.4545 7.4182C17.4545 6.73435 17.0563 6.14667 16.415 5.88463Z" />
    </symbol>
    <symbol id="icon-cart" viewBox="0 0 24 24">
        <path d="M7.78125 15.5001H20.4846C20.7991 15.5001 21.0751 15.293 21.1602 14.9922L23.9729 5.1921C24.0333 4.98083 23.9919 4.75388 23.8588 4.57833C23.7255 4.40333 23.5183 4.29998 23.2971 4.29998H6.15802L5.6554 2.04833C5.58398 1.72768 5.29834 1.5 4.96875 1.5H0.703125C0.314575 1.5 0 1.81317 0 2.19999C0 2.587 0.314575 2.89999 0.703125 2.89999H4.40442L6.94354 14.2749C6.19647 14.5983 5.67188 15.3386 5.67188 16.2001C5.67188 17.358 6.61816 18.3 7.78125 18.3H20.4846C20.8733 18.3 21.1877 17.987 21.1877 17.6C21.1877 17.2132 20.8733 16.9 20.4846 16.9H7.78125C7.39398 16.9 7.07813 16.5863 7.07813 16.2001C7.07813 15.8138 7.39398 15.5001 7.78125 15.5001Z" />
        <path d="M7.07812 20.3998C7.07812 21.5579 8.02441 22.4998 9.18768 22.4998C10.3508 22.4998 11.2971 21.5579 11.2971 20.3998C11.2971 19.2419 10.3508 18.2998 9.18768 18.2998C8.02441 18.2998 7.07812 19.2419 7.07812 20.3998Z" />
        <path d="M16.9688 20.3998C16.9688 21.5579 17.915 22.4998 19.0781 22.4998C20.2414 22.4998 21.1875 21.5579 21.1875 20.3998C21.1875 19.2419 20.2414 18.2998 19.0781 18.2998C17.915 18.2998 16.9688 19.2419 16.9688 20.3998Z" />
    </symbol>
</svg>